<svg xmlns="http://www.w3.org/2000/svg" viewBox="1 11.982 46 23.018" width="1024" height="408">
    <g data-name="Loading bar" id="download-logo" >
        <path
            d="M41 23H7a5.94 5.94 0 0 0-4.24 1.76A6 6 0 0 0 7 35h34a5.94 5.94 0 0 0 4.24-1.76A6 6 0 0 0 41 23m0 10H7.17A4.12 4.12 0 0 1 3 29.39 4 4 0 0 1 7 25h34a4 4 0 0 1 0 8"
            data-original="#000000" fill="#909294"/>
        <path
            d="M5 29a2 2 0 0 0 2 2h19v-4H7a2 2 0 0 0-2 2m-3-9h3a1 1 0 0 0 0-2H3v-5a1 1 0 0 0-2 0v6a1 1 0 0 0 1 1m8 0a3 3 0 0 0 3-3v-2a3 3 0 0 0-6 0v2a3 3 0 0 0 3 3m-1-5a1 1 0 0 1 2 0v2a1 1 0 0 1-2 0zm13 5h2a3 3 0 0 0 3-3v-2a3 3 0 0 0-3-3h-2a1 1 0 0 0-1 1v6a1 1 0 0 0 1 1m1-6h1a1 1 0 0 1 1 1v2a1 1 0 0 1-1 1h-1zm8 5v-6a1 1 0 0 0-2 0v6a1 1 0 0 0 2 0m-15 .32.1-.32c2.2 0 1.86-.1 2 .32a1 1 0 0 0 1.9-.64l-2-6a1 1 0 0 0-1.9 0l-2 6a1 1 0 0 0 1.9.64M17.28 17h-.56l.28-.84zM35 19v-2.7c2.31 3.46 2.29 3.7 3 3.7a1 1 0 0 0 1-1v-6a1 1 0 0 0-2 0v2.7c-2.19-3.29-2.36-3.94-3.29-3.66A1 1 0 0 0 33 13v6a1 1 0 0 0 2 0m10-4h-1a1 1 0 0 0 0 2h1a1 1 0 0 1-2 0v-2a1 1 0 0 1 1-1h2a1 1 0 0 0 0-2h-2a3 3 0 0 0-3 3v2a3 3 0 0 0 3 3c3.43 0 4.11-5 1-5"
            data-original="#000000" fill="#0d6efd"/>
    </g>
</svg>