<svg xmlns="http://www.w3.org/2000/svg" version="1.1" xmlns:xlink="http://www.w3.org/1999/xlink" width="512" height="512" x="0" y="0" viewBox="0 0 32 32" style="enable-background:new 0 0 512 512" xml:space="preserve">
  <g>
    <path
            d="M27 1H5a4 4 0 0 0-4 4v22a4 4 0 0 0 4 4h22a4 4 0 0 0 4-4V5a4 4 0 0 0-4-4zm1 22-3.586-3.586a2 2 0 0 0-2.828 0L19 22l-6.586-6.586a2 2 0 0 0-2.828 0L4 21V6a2.006 2.006 0 0 1 2-2h20a2.006 2.006 0 0 1 2 2z"
            fill="#0d6efd" />
    <circle cx="19" cy="10" r="2" fill="#0d6efd" />
  </g>
</svg>