<svg xmlns="http://www.w3.org/2000/svg" version="1.1" xmlns:xlink="http://www.w3.org/1999/xlink"
    width="512" height="512" x="0" y="0" viewBox="0 0 24 24"
    style="enable-background:new 0 0 512 512" xml:space="preserve" class="">
  <g>
    <g fill="#000" fill-rule="evenodd" clip-rule="evenodd">
      <path
                d="M3.25 3c0-.967.783-1.75 1.75-1.75h10.5a.75.75 0 0 1 .557.248l4.5 5A.75.75 0 0 1 20.75 7v14A1.75 1.75 0 0 1 19 22.75H5A1.75 1.75 0 0 1 3.25 21zM5 2.75a.25.25 0 0 0-.25.25v18c0 .138.112.25.25.25h14a.25.25 0 0 0 .25-.25V7.288L15.166 2.75z"
                fill="#0d6efd" />
      <path
                d="M9.25 11.75c0-1.571 1.15-3 2.75-3s2.75 1.429 2.75 3c0 1.313-.803 2.526-2 2.89v.86a.75.75 0 0 1-1.5 0V14a.75.75 0 0 1 .75-.75c.61 0 1.25-.586 1.25-1.5s-.64-1.5-1.25-1.5-1.25.586-1.25 1.5a.75.75 0 0 1-1.5 0zM12 19.5a1.25 1.25 0 1 0 0-2.5 1.25 1.25 0 0 0 0 2.5zM15 1.25a.75.75 0 0 1 .75.75v4.25H20a.75.75 0 0 1 0 1.5h-5a.75.75 0 0 1-.75-.75V2a.75.75 0 0 1 .75-.75z"
                fill="#0d6efd" />
    </g>
  </g>
</svg>